<svg xmlns="http://www.w3.org/2000/svg" fill="none" viewBox="30 20 27 27">
<g id="Group 173">
<circle id="Ellipse 11" cx="43.5423" cy="33.4576" r="11.4576" fill="white"/>
<g id="Ellipse 12" filter="url(#filter0_d_1_501)">
<circle cx="43.5" cy="33.5" r="13.5" fill="white"/>
</g>
<g id="Group 171">
<g id="Group">
<path id="Vector" d="M35.4066 27.2139C34.601 28.262 33.9935 29.4701 33.6398 30.7824H38.9752L35.4066 27.2139Z" fill="#0052B4"/>
<path id="Vector_2" d="M53.4448 30.7824C53.0911 29.4701 52.4836 28.262 51.678 27.2139L48.1095 30.7824H53.4448Z" fill="#0052B4"/>
<path id="Vector_3" d="M33.6398 36.1333C33.9936 37.4456 34.601 38.6537 35.4066 39.7018L38.975 36.1333H33.6398Z" fill="#0052B4"/>
<path id="Vector_4" d="M49.7862 25.322C48.7381 24.5164 47.5301 23.9089 46.2177 23.5552V28.8905L49.7862 25.322Z" fill="#0052B4"/>
<path id="Vector_5" d="M37.2984 41.5934C38.3465 42.399 39.5546 43.0064 40.8669 43.3602V38.0249L37.2984 41.5934Z" fill="#0052B4"/>
<path id="Vector_6" d="M40.8669 23.5552C39.5545 23.9089 38.3465 24.5164 37.2984 25.3219L40.8669 28.8904V23.5552Z" fill="#0052B4"/>
<path id="Vector_7" d="M46.2177 43.3602C47.5301 43.0064 48.7381 42.399 49.7862 41.5934L46.2177 38.0249V43.3602Z" fill="#0052B4"/>
<path id="Vector_8" d="M48.1095 36.1333L51.678 39.7018C52.4836 38.6537 53.0911 37.4456 53.4448 36.1333H48.1095Z" fill="#0052B4"/>
</g>
<g id="Group_2">
<path id="Vector_9" d="M53.7113 32.12H44.8801H44.8801V23.2887C44.4422 23.2317 43.9957 23.2019 43.5423 23.2019C43.0889 23.2019 42.6425 23.2317 42.2046 23.2887V32.1199V32.1199H33.3734C33.3164 32.5579 33.2866 33.0043 33.2866 33.4577C33.2866 33.9111 33.3164 34.3575 33.3734 34.7954H42.2046H42.2046V43.6266C42.6425 43.6837 43.0889 43.7135 43.5423 43.7135C43.9957 43.7135 44.4422 43.6837 44.88 43.6266V34.7955V34.7954H53.7113C53.7683 34.3575 53.7981 33.9111 53.7981 33.4577C53.7981 33.0043 53.7683 32.5579 53.7113 32.12Z" fill="#D80027"/>
<path id="Vector_10" d="M46.2177 36.1333L50.7942 40.7098C51.0047 40.4994 51.2055 40.2794 51.3971 40.0514L47.479 36.1333H46.2177V36.1333Z" fill="#D80027"/>
<path id="Vector_11" d="M40.8669 36.1333H40.8668L36.2903 40.7097C36.5007 40.9202 36.7207 41.121 36.9488 41.3126L40.8669 37.3944V36.1333Z" fill="#D80027"/>
<path id="Vector_12" d="M40.8669 30.7824V30.7823L36.2904 26.2058C36.0799 26.4162 35.8791 26.6362 35.6876 26.8642L39.6057 30.7824H40.8669V30.7824Z" fill="#D80027"/>
<path id="Vector_13" d="M46.2177 30.7824L50.7943 26.2058C50.5839 25.9954 50.3639 25.7946 50.1359 25.603L46.2177 29.5212V30.7824Z" fill="#D80027"/>
</g>
</g>
</g>
<defs>
<filter id="filter0_d_1_501" x="0" y="0" width="87" height="87" filterUnits="userSpaceOnUse" color-interpolation-filters="sRGB">
<feFlood flood-opacity="0" result="BackgroundImageFix"/>
<feColorMatrix in="SourceAlpha" type="matrix" values="0 0 0 0 0 0 0 0 0 0 0 0 0 0 0 0 0 0 127 0" result="hardAlpha"/>
<feOffset dy="10"/>
<feGaussianBlur stdDeviation="15"/>
<feComposite in2="hardAlpha" operator="out"/>
<feColorMatrix type="matrix" values="0 0 0 0 0 0 0 0 0 0 0 0 0 0 0 0 0 0 0.1 0"/>
<feBlend mode="normal" in2="BackgroundImageFix" result="effect1_dropShadow_1_501"/>
<feBlend mode="normal" in="SourceGraphic" in2="effect1_dropShadow_1_501" result="shape"/>
</filter>
</defs>
</svg>